<?xml version="1.0" standalone="no"?>
<!DOCTYPE svg PUBLIC "-//W3C//DTD SVG 20010904//EN"
 "http://www.w3.org/TR/2001/REC-SVG-20010904/DTD/svg10.dtd">
<svg version="1.0" xmlns="http://www.w3.org/2000/svg"
 width="400.000000pt" height="400.000000pt" viewBox="0 0 400.000000 400.000000"
 preserveAspectRatio="xMidYMid meet">

<g transform="translate(0.000000,400.000000) scale(0.100000,-0.100000)"
fill="#000000" stroke="none">
<path d="M1739 3481 l-23 -18 18 -119 c20 -131 26 -172 86 -549 87 -556 86
-542 65 -565 -10 -11 -27 -20 -38 -20 -20 0 -25 3 -242 175 -441 350 -674 534
-702 554 -58 43 -68 33 -197 -187 -111 -190 -125 -223 -108 -248 9 -15 33 -25
641 -260 543 -210 557 -217 534 -267 -9 -19 -112 -61 -583 -238 -315 -117
-579 -220 -587 -227 -7 -7 -13 -23 -13 -34 0 -19 125 -246 207 -375 48 -77 59
-74 212 49 69 56 241 194 381 307 140 113 295 238 345 278 51 42 99 73 111 73
27 0 54 -25 54 -50 0 -10 -40 -281 -90 -603 -49 -322 -90 -594 -90 -605 0 -47
28 -52 275 -52 259 0 275 4 275 63 0 18 -14 118 -30 222 -17 105 -37 235 -45
290 -8 55 -35 231 -60 390 -25 160 -45 295 -45 302 0 19 30 43 55 43 16 0 176
-123 494 -380 520 -420 509 -413 551 -342 159 265 220 375 220 396 0 18 -8 30
-27 39 -16 8 -277 108 -582 223 -478 181 -555 212 -562 233 -7 17 -5 30 4 45
10 15 174 83 577 240 309 121 569 226 576 234 8 7 14 23 14 34 0 19 -178 330
-227 396 -45 60 15 100 -708 -472 -183 -145 -318 -246 -331 -246 -11 0 -29 9
-39 20 -20 22 -34 -80 130 965 8 50 20 130 27 179 18 130 27 126 -267 126
-213 0 -235 -2 -256 -19z"/>
</g>
</svg>
